<svg width="82" height="94" viewBox="0 0 82 94" fill="none" xmlns="http://www.w3.org/2000/svg">
<g clip-path="url(#clip0_1310_3517)">
<path d="M50.9654 69.8424C50.7921 67.3921 52.2337 66.3092 53.1469 64.1892C53.4555 64.6283 53.6711 64.9335 53.8825 65.2429C55.5185 67.6681 57.1631 70.0933 58.7907 72.5226C59.2895 73.2711 59.949 73.7101 60.8664 73.5429C61.2787 73.4709 61.6565 73.2693 61.9437 72.9679C62.2308 72.6666 62.412 72.2817 62.4602 71.8703C62.8534 70.0975 63.3057 68.3371 63.6777 66.5601C64.3711 63.2861 65.3011 60.033 65.6351 56.7256C66.0579 52.4773 64.4302 48.8396 60.9848 46.1635C59.8856 45.3063 58.5878 44.6959 57.3153 43.9349C57.3914 43.4164 57.4632 42.7976 57.5689 42.1829C58.4942 37.0471 58.5713 31.7969 57.7972 26.6367C56.8185 19.9303 54.0453 13.6045 49.7648 8.31414C47.4988 5.51265 45.0384 2.90768 42.0537 0.83374H40.9081C40.5741 1.06789 40.2232 1.28532 39.9104 1.54039C34.5986 5.81589 30.3846 11.2733 27.6124 17.4671C26.1137 20.7201 25.1394 24.1852 24.725 27.7364C24.1796 32.9296 24.6827 38.0685 25.5705 43.1822C25.7058 43.939 25.5197 44.2025 24.8476 44.4785C19.0769 46.8576 16.3924 52.632 17.4366 58.3772C18.2483 62.8679 19.4659 67.2876 20.4805 71.7574C20.6834 72.669 21.1188 73.3464 22.0658 73.5387C23.0128 73.731 23.7568 73.2 24.2726 72.4055C25.8918 69.972 27.5321 67.5468 29.1724 65.1217C29.3541 64.8499 29.5571 64.5865 29.8234 64.2269C30.3645 65.2806 30.8211 66.2423 31.3411 67.1538C31.7887 67.9441 32.0081 68.8409 31.9752 69.7462L50.9654 69.8424ZM55.2353 57.8378C55.658 54.8649 56.1062 51.8961 56.5585 48.9274C56.6131 48.6587 56.6837 48.3934 56.7699 48.1329C59.6616 49.2117 61.8176 52.2766 61.843 55.5799C61.8019 56.9495 61.6192 58.3113 61.2976 59.6441C60.8199 61.994 60.2407 64.3189 59.6446 66.9196C58.0424 64.5405 56.5078 62.4289 55.193 60.1919C54.8464 59.6107 55.1296 58.6239 55.2353 57.8378ZM41.5253 5.23667C45.1127 8.34541 48.118 12.0553 50.4032 16.1959C46.0911 20.7703 36.9722 20.7703 32.584 16.1959C34.8841 12.0476 37.9117 8.3367 41.5253 5.23667ZM27.5236 60.748C26.3061 62.4665 25.1519 64.2269 23.9725 65.9705C23.8034 66.2172 23.6173 66.4597 23.3256 66.8611C22.6661 64.0094 22.0912 61.3418 21.4275 58.6908C20.8706 56.6191 21.0192 54.4237 21.8502 52.4439C22.2504 51.4544 22.8477 50.5547 23.6067 49.7983C24.3656 49.0419 25.2707 48.4443 26.268 48.0409C26.5301 49.7636 26.7753 51.386 27.0163 52.9665C27.3122 54.9443 27.5913 56.9263 27.9083 58.904C27.9786 59.2209 27.9806 59.5488 27.9143 59.8665C27.848 60.1842 27.7149 60.4845 27.5236 60.748ZM34.7612 65.4395C34.3004 64.4192 33.7635 63.4324 33.1801 62.2658C34.7358 62.2658 36.1013 62.2658 37.4626 62.2658C38.8239 62.2658 39.5764 61.4839 39.5764 60.3549C39.5764 59.226 38.7309 58.5152 37.4964 58.5068C35.6278 58.5068 33.7593 58.5068 31.7681 58.5068C31.5778 57.3569 31.3834 56.2322 31.2143 55.099C30.3941 49.588 29.5232 44.0812 28.775 38.5577C27.9295 32.3275 28.1747 26.1768 30.6266 20.2602C30.6731 20.1515 30.7323 20.0428 30.8042 19.8922C37.8868 24.6757 44.9834 24.698 52.0942 19.9591C53.2112 23.0173 53.9452 26.1993 54.2799 29.434C54.9182 34.7987 54.0431 40.0588 53.223 45.3231C52.5339 49.7804 51.904 54.246 51.2191 58.7033C51.124 59.3489 50.9376 59.9781 50.6653 60.5724C49.9001 62.1864 49.0504 63.7627 48.2725 65.3725C48.1999 65.5886 48.0556 65.774 47.8629 65.8985C47.6702 66.023 47.4406 66.0793 47.2114 66.0583C43.4009 66.0276 39.5961 66.0276 35.797 66.0583C35.578 66.0952 35.3529 66.053 35.1627 65.9394C34.9726 65.8258 34.8301 65.6484 34.7612 65.4395Z" fill="#32245D"/>
<path d="M51.0119 37.8343C51.0237 35.969 50.4752 34.1423 49.4362 32.5856C48.3971 31.0289 46.9142 29.8123 45.1753 29.09C43.4365 28.3678 41.52 28.1724 39.6687 28.5286C37.8175 28.8847 36.1148 29.7765 34.7764 31.0907C33.4381 32.405 32.5244 34.0827 32.1511 35.9111C31.7779 37.7396 31.9618 39.6365 32.6796 41.3614C33.3975 43.0863 34.6169 44.5617 36.1833 45.6004C37.7498 46.6392 39.5928 47.1946 41.4788 47.1963C43.9934 47.1898 46.4042 46.2035 48.1886 44.4511C49.9731 42.6987 50.9875 40.3213 51.0119 37.8343ZM41.483 43.4164C40.3551 43.4155 39.2527 43.0839 38.3153 42.4634C37.3779 41.8429 36.6476 40.9615 36.2167 39.9305C35.7859 38.8995 35.6738 37.7652 35.8946 36.6712C36.1155 35.5772 36.6594 34.5726 37.4576 33.7843C38.2558 32.996 39.2724 32.4595 40.3788 32.2427C41.4852 32.0259 42.6318 32.1384 43.6736 32.5661C44.7153 32.9938 45.6055 33.7174 46.2314 34.6455C46.8574 35.5735 47.191 36.6643 47.1902 37.7799C47.1609 39.2672 46.55 40.6853 45.4857 41.7364C44.4214 42.7874 42.9867 43.3896 41.483 43.4164Z" fill="#32245D"/>
<path d="M45.2625 58.5069C44.8893 58.5143 44.5266 58.6304 44.2198 58.8406C43.913 59.0508 43.6756 59.3458 43.5374 59.6887C43.3991 60.0316 43.3662 60.4072 43.4427 60.7685C43.5191 61.1299 43.7016 61.4609 43.9672 61.7202C44.2329 61.9795 44.57 62.1556 44.9363 62.2265C45.3026 62.2973 45.6819 62.2598 46.0267 62.1186C46.3716 61.9773 46.6667 61.7387 46.8751 61.4325C47.0836 61.1262 47.1961 60.766 47.1987 60.3969C47.2016 60.1458 47.1533 59.8966 47.0567 59.6644C46.9602 59.4321 46.8172 59.2215 46.6365 59.0451C46.4558 58.8687 46.241 58.7301 46.0049 58.6377C45.7688 58.5452 45.5163 58.5007 45.2625 58.5069Z" fill="#32245D"/>
<path d="M41.5549 35.8984C41.1778 35.8851 40.8053 35.9833 40.4848 36.1805C40.1644 36.3776 39.9107 36.6647 39.756 37.0051C39.6013 37.3455 39.5528 37.7239 39.6165 38.0917C39.6802 38.4596 39.8534 38.8003 40.1138 39.0704C40.3742 39.3405 40.7102 39.5276 41.0787 39.608C41.4472 39.6884 41.8315 39.6583 42.1826 39.5216C42.5338 39.3849 42.8357 39.1478 43.05 38.8406C43.2642 38.5333 43.381 38.1699 43.3855 37.7967C43.3924 37.3063 43.2045 36.8327 42.8622 36.4778C42.52 36.1228 42.0506 35.9148 41.5549 35.8984Z" fill="#32245D"/>
<path d="M80.7539 80.6436C79.2657 76.6329 76.3802 74.3375 72.4091 73.8792C68.5722 73.4588 65.3511 74.9891 63.1011 78.3692C62.28 79.601 61.7313 80.9589 60.0024 80.6983C59.9764 80.6918 59.9494 80.6918 59.9234 80.6983C59.7124 80.7668 59.4866 80.7631 59.2777 80.6877C59.0687 80.6122 58.8873 80.4689 58.7589 80.2778C57.9082 79.2761 56.8661 78.4799 55.7025 77.9426C54.5389 77.4053 53.2809 77.1393 52.0128 77.1626C50.9312 77.1626 49.8536 77.4107 48.7325 77.5452C48.7325 75.6996 44.8246 72 44.8246 72H36.8587C36.8587 72 32.9113 75.1741 32.9113 76.759C32.9113 77.0491 32.8876 77.3392 32.8758 77.6629C32.5284 77.5788 32.2718 77.5242 32.0192 77.4569C29.0705 76.6834 26.3033 77.2047 23.998 79.2605C22.8533 80.2779 21.8625 80.9421 20.3585 80.5511C20.1618 80.5368 19.972 80.4675 19.8085 80.3501C19.6449 80.2328 19.5133 80.0715 19.4269 79.8827C17.7138 76.2209 14.8795 74.1735 11.0979 73.833C7.15049 73.4757 3.99256 75.1783 1.82543 78.7055C1.13069 79.8406 0.822792 81.228 0.333313 82.5313V85.2261C0.376735 85.2933 0.451738 85.3564 0.459633 85.4321C1.05174 89.922 5.29521 94.0084 10.3953 94C30.6889 93.9664 50.9865 94 71.2801 93.9537C72.5126 93.9423 73.7346 93.7122 74.896 93.2727C79.9092 91.4103 82.5895 85.596 80.7539 80.6436Z" fill="#AA45BE"/>
</g>
<defs>
<clipPath id="clip0_1310_3517">
<rect width="81" height="94" fill="white" transform="translate(0.333313)"/>
</clipPath>
</defs>
</svg>
