<svg width="74" height="91" viewBox="0 0 74 91" fill="none" xmlns="http://www.w3.org/2000/svg">
<g clip-path="url(#clip0_1310_3513)">
<path d="M0.666642 34.2854C1.13991 32.2142 1.39967 30.0644 2.11846 28.0825C5.92948 17.5802 13.338 11.1809 24.3085 9.15618C27.0555 8.65267 29.9129 8.76336 32.7845 8.58838V22.0189C31.9341 22.0189 31.1227 22.0189 30.2936 22.0189C28.3401 22.0189 26.9701 23.2438 26.9915 24.9329C27.0128 26.622 28.3792 27.7897 30.3328 27.7897H32.7809V35.0495H38.5384C38.5629 34.152 38.7879 33.2715 39.1968 32.473C39.6058 31.6744 40.1882 30.9782 40.9012 30.4358C42.1124 29.5372 43.6174 29.1316 45.1143 29.3002C47.8791 29.4823 50.096 31.8499 50.4198 35.1424H59.0844C59.2454 37.5773 59.1067 40.0228 58.6717 42.4237C57.2127 49.9942 53.1704 55.8757 47.139 60.493C45.954 61.4 44.8367 62.3928 43.6625 63.3141C43.4446 63.4513 43.2715 63.6495 43.1646 63.8843C43.0577 64.1192 43.0217 64.3802 43.0611 64.6354C43.0895 64.9096 43.0895 65.186 43.0611 65.4603C42.9686 66.7244 43.1287 67.66 44.3955 68.5492C46.8863 70.2954 46.4451 74.1699 43.787 75.7162C43.5023 75.8804 43.2034 76.0233 42.8761 76.1911C43.175 77.4946 43.2319 78.773 42.4917 79.9121C42.1359 80.4621 41.6911 81.0727 41.136 81.3405C40.2642 81.7833 39.9831 82.444 39.7874 83.3153C38.9227 87.1291 35.0334 91.3072 29.0375 90.9679C24.7177 90.7251 20.686 87.1684 19.7858 82.6582C19.7226 82.3146 19.5382 82.0052 19.2663 81.7869C16.9498 80.2871 16.3769 79.0158 16.8608 76.1876L16.174 75.8305C14.7507 75.0341 13.8789 73.8557 13.7792 72.188C13.69 71.3605 13.8506 70.5252 14.2402 69.7904C14.6297 69.0556 15.2304 68.4552 15.9641 68.0671C16.5761 67.71 16.6366 67.3208 16.722 66.7065C17.0209 64.6175 16.2594 63.2391 14.5372 61.9785C11.7901 59.9716 9.14269 57.8004 6.9792 55.1079C3.56319 50.9342 1.41846 45.8608 0.801862 40.4953C0.771087 40.3166 0.724648 40.1409 0.663086 39.9704L0.666642 34.2854ZM29.7848 43.8521V38.1385H21.081C21.081 37.1636 21.202 36.2851 21.0454 35.4602C20.9239 34.6338 20.6039 33.8495 20.1131 33.1748C19.3517 32.2642 18.2343 32.1035 17.1099 32.5748C15.9178 33.0855 15.377 34.0675 15.3307 35.3209C15.288 36.253 15.3307 37.1886 15.3307 38.1992H3.7731C3.7731 38.4634 3.7731 38.642 3.7731 38.8205C4.17164 45.2198 6.6198 50.7156 11.2208 55.1436C13.6689 57.5076 16.4053 59.5717 19.0492 61.7464C19.2813 61.9099 19.467 62.1311 19.5881 62.3885C19.7091 62.6458 19.7613 62.9304 19.7395 63.2141C19.6933 64.6032 19.7395 65.9959 19.7395 67.3886H29.8346V55.8471C26.3545 55.3722 24.095 53.1367 24.0487 50.1728C23.9526 46.6839 25.9204 44.5234 29.7848 43.8521ZM47.3738 38.1385C47.4315 37.2653 47.4208 36.3889 47.3418 35.5173C47.2381 34.7226 46.9637 33.9599 46.5376 33.2819C45.8722 32.332 44.5627 32.0928 43.4845 32.532C42.2533 33.0319 41.6769 34.0247 41.6235 35.3209C41.5844 36.253 41.6235 37.185 41.6235 38.2027H32.8237V46.9731C31.8629 46.9731 30.9875 46.9731 30.1157 46.9731C29.6395 46.9476 29.1641 47.0382 28.7303 47.2372C28.2966 47.4362 27.9173 47.7377 27.6249 48.1159C27.2888 48.5159 27.0762 49.0056 27.013 49.525C26.9498 50.0444 27.0387 50.5711 27.269 51.0405C27.5031 51.5592 27.8839 51.9976 28.364 52.301C28.8442 52.6045 29.4025 52.7597 29.9698 52.7475C30.8986 52.7867 31.8273 52.7475 32.8165 52.7475V67.3386H40.0436C40.0436 65.8638 40.0009 64.4568 40.0721 63.0534C40.1069 62.5926 40.3111 62.1611 40.645 61.8428C42.5167 60.2359 44.4311 58.6753 46.3383 57.1219C50.4518 53.8509 53.3555 49.78 54.9211 44.7627C55.6329 42.6323 55.9935 40.3997 55.9887 38.1527L47.3738 38.1385ZM29.7812 35.0995V30.8965C26.4897 30.5394 24.1341 28.3039 24.006 25.4971C23.8459 21.8832 25.7567 19.7014 29.7812 18.9229V11.8416C14.9322 11.2488 4.10047 23.7009 3.9012 35.1067H12.2385C12.7153 31.6107 14.9393 29.3431 17.8856 29.2967C21.3657 29.2431 23.5327 31.2357 24.1697 35.1138L29.7812 35.0995ZM29.9734 70.4239H18.761C17.5369 70.4239 16.7967 70.9703 16.7932 71.8523C16.7896 72.7344 17.5369 73.2808 18.7574 73.2808H40.6378C40.9083 73.2808 41.1858 73.2808 41.4563 73.2808C42.3281 73.2058 42.965 72.5987 42.9686 71.8523C42.9721 71.106 42.3316 70.5061 41.4598 70.4239C41.2178 70.4025 40.9723 70.4239 40.7304 70.4239H29.9734ZM36.866 82.2083H22.9029C23.3833 85.3722 26.5289 87.9219 29.8738 87.9469C33.2186 87.9719 36.3358 85.4258 36.866 82.2154V82.2083ZM29.7812 79.1551C32.6279 79.1551 35.4924 79.1551 38.3462 79.1551C39.3533 79.1551 40.04 78.5444 40.0471 77.7267C40.0391 77.5268 39.9911 77.3305 39.9059 77.1496C39.8208 76.9687 39.7003 76.8068 39.5516 76.6736C39.4029 76.5403 39.229 76.4384 39.0403 76.374C38.8515 76.3095 38.6518 76.2837 38.453 76.2983C32.7596 76.2983 27.0342 76.2697 21.323 76.3233C21.0474 76.3508 20.7807 76.4359 20.5399 76.573C20.299 76.7102 20.0894 76.8963 19.9246 77.1196C19.2876 78.0802 20.1238 79.1301 21.4902 79.1408C24.2551 79.1729 27.0199 79.1622 29.7812 79.1622V79.1551Z" fill="#32245D"/>
<path d="M69.8699 0C70.0317 0.0810561 70.198 0.152588 70.3681 0.214252C72.375 0.803468 73.6275 2.33187 73.6382 4.44234C73.6738 10.2774 73.6738 16.11 73.6382 21.9403C73.6382 24.4935 71.7558 26.2898 69.2009 26.3362C67.1015 26.3719 65.002 26.3362 62.9026 26.3362C62.2692 26.3362 62.0237 26.1291 62.0593 25.4899C62.0984 24.7757 62.0842 24.0829 62.0593 23.383C62.0326 22.6114 61.7085 21.8804 61.1552 21.344C60.6019 20.8076 59.8626 20.5078 59.0934 20.5078C58.3241 20.5078 57.5848 20.8076 57.0315 21.344C56.4782 21.8804 56.1541 22.6114 56.1275 23.383C56.1061 24.1472 56.1737 24.9185 56.0919 25.672C56.0634 25.9112 55.6933 26.304 55.4798 26.304C52.0424 26.3469 48.6015 26.329 45.1606 26.3398C44.5948 26.3398 44.5272 26.0184 44.5307 25.5684C44.5307 23.7829 44.4845 21.9617 44.5521 20.1619C44.5841 19.3263 44.3243 18.9978 43.4846 18.8513C42.3178 18.6701 41.2379 18.1236 40.3989 17.29C39.5599 16.4563 39.0047 15.3781 38.8124 14.209C38.236 11.1701 40.2358 8.11333 43.2568 7.57054C44.2781 7.38842 44.6802 7.0063 44.5343 5.98857C44.4898 5.47054 44.4898 4.94964 44.5343 4.43161C44.5346 3.46069 44.859 2.51784 45.4555 1.75346C46.0521 0.989088 46.8865 0.44721 47.8258 0.214252C47.9966 0.160687 48.1567 0.0714202 48.3239 0H69.8699Z" fill="#AA45BE"/>
</g>
<defs>
<clipPath id="clip0_1310_3513">
<rect width="73" height="91" fill="white" transform="translate(0.666626)"/>
</clipPath>
</defs>
</svg>
