<svg width="86" height="88" viewBox="0 0 86 88" fill="none" xmlns="http://www.w3.org/2000/svg">
<g clip-path="url(#clip0_1310_3509)">
<path d="M43.0304 86.1082C37.291 86.0834 31.6125 84.9288 26.3177 82.71C25.8962 82.548 25.4357 82.5174 24.9966 82.6223C21.8749 83.4308 18.7684 84.2889 15.6543 85.1242C12.228 86.0472 8.77886 86.9968 5.3221 87.8702C4.61368 88.048 3.87081 88.0336 3.16975 87.8287C2.46869 87.6237 1.8347 87.2356 1.33285 86.7041C0.830989 86.1726 0.479348 85.5169 0.314016 84.8042C0.148684 84.0916 0.175608 83.3477 0.392043 82.6489C1.15344 79.8533 1.87676 77.0386 2.61913 74.2315C3.30438 71.6303 3.99345 69.0292 4.68632 66.4281C4.78147 65.9684 4.90869 65.5159 5.06702 65.0741C5.44772 64.1893 5.2079 63.4379 4.77771 62.637C2.88926 59.1108 1.55752 55.3128 0.829856 51.3781C0.453561 49.082 0.199402 46.7674 0.0684574 44.4443C-0.147522 41.1628 0.0972337 37.8671 0.795583 34.6538C1.54539 30.7496 2.85997 26.9759 4.69775 23.4521C6.07346 20.7688 7.71354 18.2301 9.59354 15.8737C12.1913 12.6579 15.2362 9.8322 18.6352 7.48297C22.9009 4.53652 27.6642 2.38888 32.6944 1.14414C35.1469 0.490254 37.6654 0.116653 40.2018 0.0304606C42.3527 -0.00767926 44.5113 -0.0610685 46.6737 0.0609789C49.2645 0.229444 51.8298 0.675684 54.3257 1.39205C57.6407 2.30195 60.8356 3.60405 63.8432 5.27087C68.1201 7.65538 71.9615 10.7506 75.2033 14.4244C77.7696 17.3063 79.9351 20.5227 81.6409 23.9861C83.0477 26.851 84.1207 29.8687 84.8388 32.9795C85.5097 35.8582 85.8923 38.7968 85.9809 41.7516C86.0673 44.6323 85.8683 47.5146 85.387 50.356C84.7125 54.355 83.4622 58.2349 81.6752 61.8742C81.0759 63.0878 80.4007 64.2623 79.6537 65.3907C78.6263 67.06 77.5105 68.673 76.3111 70.223C75.0346 71.7682 73.6626 73.2319 72.2034 74.6053C69.8005 76.8731 67.1297 78.8379 64.2506 80.4559C61.2602 82.1545 58.0778 83.4887 54.7711 84.4301C51.8957 85.2726 48.9338 85.7844 45.9427 85.9557C44.9681 86.0091 43.9974 86.0586 43.0304 86.1082ZM5.27261 82.9731L5.42109 83.1409C6.08731 82.9693 6.75353 82.8053 7.41214 82.6298C10.1227 81.8976 12.832 81.1653 15.5401 80.433C17.9004 79.7884 20.2569 79.1248 22.6211 78.4917C23.6414 78.2209 24.6578 77.9768 25.7047 78.4917C30.3973 80.8558 35.5337 82.2046 40.7805 82.4506C44.345 82.6628 47.9217 82.3818 51.4096 81.6154C55.9772 80.6179 60.3324 78.8178 64.2734 76.2986C68.2424 73.7491 71.7236 70.5082 74.5523 66.7294C78.0512 62.1109 80.4781 56.7688 81.6561 51.092C82.3657 47.7408 82.6307 44.3104 82.4442 40.8896C82.2814 37.5308 81.693 34.2063 80.693 30.9962C78.7727 24.853 75.3643 19.2816 70.7719 14.7791C67.776 11.8319 64.3323 9.37954 60.5692 7.51349C57.2977 5.87834 53.8114 4.71623 50.2142 4.06184C46.908 3.47856 43.5431 3.30181 40.1942 3.53551C36.3158 3.78174 32.4977 4.62033 28.8722 6.02223C23.9431 7.90358 19.4492 10.773 15.6657 14.4549C13.0624 16.9634 10.8144 19.8174 8.98443 22.9372C6.83082 26.5586 5.28736 30.5107 4.41604 34.6347C3.67554 38.0242 3.39637 41.4985 3.58612 44.963C3.74094 47.5345 4.12313 50.0871 4.72821 52.5909C5.66301 56.4179 7.18078 60.0778 9.22808 63.4417C9.51885 63.881 9.70889 64.3794 9.78459 64.901C9.86028 65.4226 9.81974 65.9545 9.66587 66.4586C9.25472 67.9231 8.85373 69.3903 8.46287 70.8599C7.71924 73.6568 6.98448 76.4537 6.25861 79.2507C5.91598 80.4902 5.59621 81.7298 5.27261 82.9731Z" fill="#32245D"/>
<path d="M42.7069 56.8245H38.5192C38.1385 56.8245 37.7997 56.7901 37.7883 56.2981C37.7121 53.4033 37.754 50.5238 38.7933 47.7625C39.4811 45.942 40.5809 44.3062 42.0064 42.9835C44.2411 40.9011 46.5748 38.9445 48.859 36.9117C50.062 35.84 51.345 34.8254 52.0226 33.296C52.7602 31.6231 52.8226 29.729 52.1966 28.0111C51.5705 26.2931 50.3048 24.8848 48.6648 24.0814C45.3756 22.4147 41.9493 22.4185 38.5839 23.8831C36.1018 24.9663 34.5713 26.9953 33.6006 29.4668C33.3251 30.1878 33.095 30.9253 32.9115 31.6751C32.7973 32.1251 32.6031 32.2815 32.1501 32.2205C29.8088 31.923 27.4675 31.6484 25.13 31.3661C24.5628 31.2937 23.9879 31.2021 23.4321 31.1487C23.0514 31.1106 22.941 30.9352 22.9753 30.5576C23.2609 27.1 24.6643 23.8301 26.9726 21.2438C29.2514 18.5821 32.252 16.6399 35.6107 15.6525C36.971 15.288 38.3569 15.0266 39.7565 14.8707C43.0159 14.4531 46.3238 14.6276 49.5214 15.3856C52.6195 16.0607 55.4841 17.5449 57.8245 19.6877C60.4894 22.1363 62.351 25.0044 62.9259 28.6315C63.2193 30.3287 63.1544 32.0687 62.7354 33.7392C62.3164 35.4098 61.5526 36.9738 60.4932 38.3305C58.209 41.355 55.3195 43.7387 52.4756 46.1835C51.2338 47.2865 50.0556 48.4592 48.9466 49.6961C47.991 50.7297 47.7854 52.0875 47.6522 53.43C47.5608 54.3721 47.5304 55.337 47.5037 56.26C47.5037 56.7062 47.3514 56.855 46.8832 56.8436C45.4898 56.8054 44.1003 56.8436 42.6955 56.8436L42.7069 56.8245Z" fill="#AA45BE"/>
<path d="M43.0876 71.2984C41.5648 71.2984 40.042 71.2984 38.542 71.2984C37.9976 71.2984 37.7806 71.1078 37.7806 70.5624C37.7806 67.5112 37.7806 64.4498 37.7806 61.3783C37.7806 60.7642 38.0281 60.5392 38.6258 60.543C41.6714 60.543 44.7271 60.543 47.793 60.543C48.345 60.543 48.5316 60.768 48.5316 61.3058C48.5164 64.3901 48.5164 67.4756 48.5316 70.5624C48.5316 71.1116 48.3146 71.3252 47.7702 71.3061C46.2055 71.3061 44.637 71.3061 43.0723 71.3061L43.0876 71.2984Z" fill="#AA45BE"/>
</g>
<defs>
<clipPath id="clip0_1310_3509">
<rect width="86" height="88" fill="white"/>
</clipPath>
</defs>
</svg>
