<svg width="146" height="96" viewBox="0 0 146 96" fill="none" xmlns="http://www.w3.org/2000/svg">
<g clip-path="url(#clip0_1441_3916)">
<path d="M7.1463 76.4817C8.12 77.1934 9.26734 77.6986 10.4994 77.958C11.3334 78.1656 12.2208 78.1363 13.0347 77.8744C13.8486 77.6124 14.5472 77.1311 15.0306 76.4994C15.3227 76.1442 15.5756 75.7653 15.7858 75.3679C16.2455 74.484 16.5835 73.5553 16.7928 72.6011C17.5027 69.4189 18.017 66.2054 18.3334 62.9746C18.6758 60.084 18.8974 57.1933 19.1088 54.3027C19.431 49.8033 19.6626 45.3038 19.8842 40.8132C19.8842 40.6267 19.9332 40.4428 20.0275 40.2756C20.1218 40.1085 20.2588 39.9627 20.4278 39.8497C22.6431 38.1613 24.8383 36.4552 27.0536 34.758C31.0388 31.8 34.7869 28.6043 38.271 25.1934C38.2978 25.1585 38.3384 25.1336 38.3851 25.1238C38.4317 25.114 38.4808 25.1198 38.5227 25.1403C38.422 26.1657 38.3112 27.2088 38.2105 28.2519C37.8346 32.3771 37.5325 36.5289 37.3042 40.7071C36.972 46.6121 36.6901 52.5171 36.6196 58.3867C36.4801 65.6206 36.7793 72.8559 37.5158 80.0619C37.5762 80.6276 37.6365 81.9448 37.697 82.5282L39.006 82.4486V81.4585C39.0665 79.5137 39.137 77.569 39.1672 75.6243C39.2276 72.9723 39.2578 70.3204 39.288 67.6066C39.3484 63.1249 39.3483 58.643 39.449 54.1613C39.5195 50.7226 39.6203 47.2928 39.7915 43.863C40.0063 39.7378 40.2882 35.642 40.6373 31.5757C40.9192 28.305 41.1811 25.0343 41.5536 21.7636C41.5829 21.4815 41.6938 21.2107 41.8758 20.9768C42.8452 19.7328 43.7069 18.4267 44.4536 17.0696C45.7589 14.8668 46.5787 12.4675 46.8702 9.99775C46.9996 8.54771 46.7801 7.09002 46.2259 5.71933C45.9137 4.93259 45.2189 4.59671 44.2824 5.30389C43.2291 6.13729 42.3912 7.15902 41.8254 8.30048C41.2392 9.5331 40.8006 10.8159 40.5165 12.1282C39.6931 15.8161 39.0948 19.54 38.7241 23.284C38.699 23.6437 38.5316 23.9845 38.2508 24.2475C36.4121 26.0547 34.4553 27.7666 32.3903 29.3746C28.4331 32.4774 24.3348 35.3945 20.307 38.4531C20.2466 38.4531 20.1964 38.5856 20.0453 38.5326C20.0453 38.3646 20.0453 38.179 20.0453 37.9934C20.2266 34.1304 20.4681 30.2586 20.8105 26.3956C21.1327 22.7448 21.4852 19.0939 22.0088 15.4608C22.2651 13.5266 22.8101 11.6304 23.63 9.821C23.7185 9.7038 23.774 9.56972 23.7916 9.42995C23.8093 9.29017 23.7886 9.1487 23.7315 9.01731C23.6744 8.88591 23.5824 8.7684 23.4632 8.67449C23.3439 8.58057 23.201 8.51298 23.046 8.47734C22.7881 8.37371 22.5125 8.30804 22.2303 8.28289C21.455 8.21217 21.1428 8.45084 21.1328 9.16687C21.1328 10.0508 21.1328 10.8817 21.0119 11.7392C20.8508 13.2419 20.5688 14.7271 20.3171 16.221C19.8942 18.7138 19.5418 21.2066 19.2296 23.7171C18.8168 27.032 18.4946 30.3558 18.2227 33.6884C18.0616 35.7834 17.8904 37.8785 17.7495 39.9735C17.7406 40.1454 17.6891 40.3134 17.5986 40.4661C17.5082 40.6187 17.381 40.7523 17.2258 40.8575C14.1491 43.252 11.2309 45.7991 8.4855 48.4862C6.2624 50.6353 4.33906 53.0093 2.75604 55.558C1.42762 57.7132 0.647736 60.0959 0.470258 62.5415C0.250199 66.0142 1.23698 69.4637 3.29983 72.4331C4.2869 73.9792 5.59092 75.3518 7.1463 76.4817ZM42.2585 16.6983C42.5807 14.78 42.913 12.8618 43.4265 10.9701C43.7613 9.66956 44.2788 8.41057 44.9672 7.22205C45.0932 6.96325 45.2665 6.72441 45.4806 6.51493C45.8121 6.98519 46.0473 7.50275 46.1755 8.0442C46.5644 9.61668 46.4916 11.2501 45.9641 12.7912C45.1618 15.2303 43.9247 17.5425 42.2988 19.642C42.1633 19.8863 41.9712 20.103 41.7348 20.2784C41.9463 19.032 42.0974 17.8651 42.2887 16.6983H42.2585ZM1.98067 62.5061C2.19848 60.3921 2.88247 58.3356 3.99456 56.4508C5.22191 54.3426 6.71486 52.3618 8.4453 50.5458C11.186 47.6315 14.1571 44.8903 17.3366 42.3425L17.6387 42.1392C17.5279 43.7834 17.4272 45.3039 17.3164 46.8243C17.115 49.6088 16.9237 52.3845 16.7022 55.169C16.4404 58.3955 16.1282 61.6309 15.6953 64.8928C15.4536 66.7963 15.2623 68.6969 15.1213 70.5945C15.0626 71.586 14.8871 72.5695 14.5977 73.5292C14.3659 74.3632 13.9332 75.1438 13.329 75.8187C12.8858 76.3635 12.2243 76.7411 11.4772 76.8756C10.7301 77.01 9.9528 76.8914 9.30118 76.5436C8.45522 76.1477 7.6979 75.6206 7.06579 74.9878C5.26097 73.342 3.87578 71.3778 3.00249 69.2257C2.12921 67.0736 1.7878 64.783 2.00083 62.5061H1.98067Z" fill="#908B9E"/>
<path d="M106.834 82.0508C106.239 80.1459 105.768 78.2127 105.424 76.2607C104.606 71.6972 104.148 67.0896 104.055 62.4706C103.924 57.7325 104.135 53.0121 104.467 48.327C104.689 45.18 104.974 42.0419 105.323 38.9126C105.726 35.3767 106.216 31.8408 106.793 28.3049C106.854 28.1745 106.854 28.0286 106.793 27.8983C106.587 27.8843 106.38 27.9147 106.189 27.9867C102.776 28.7557 99.4327 29.7016 96.1199 30.7005C94.7047 31.139 93.2273 31.4038 91.7296 31.4873C91.3767 31.5338 91.0169 31.4611 90.7227 31.2839C90.3702 31.0452 90.34 30.8508 90.7227 30.5944C91.2892 30.1726 91.9195 29.8215 92.5956 29.5513C93.985 29.0126 95.4276 28.5866 96.9053 28.2784C100.248 27.5094 103.531 26.5724 106.884 25.8475C107.237 25.7679 107.307 25.5999 107.357 25.3347C107.851 22.6828 108.364 20.0309 108.968 17.4497C109.975 13.1359 111.123 8.84854 112.342 4.57893C112.714 3.2618 113.097 1.92704 113.48 0.645271C113.641 0.0706852 113.792 -0.0265826 114.285 0.0618152C114.41 0.0724727 114.53 0.108093 114.636 0.165946C114.742 0.223799 114.832 0.302336 114.898 0.395465C114.964 0.488594 115.005 0.593783 115.018 0.703001C115.03 0.81222 115.014 0.922514 114.97 1.02532C114.617 2.39549 114.235 3.76568 113.882 5.14469C112.714 9.83861 111.677 14.5591 110.862 19.2883C110.529 21.1182 110.227 22.948 109.855 24.7778C109.855 24.8662 109.794 24.9635 109.855 25.0607C109.915 25.158 110.127 25.0607 110.267 25.0607C114.809 24.0884 119.33 23.2397 123.952 22.4088C125.846 22.0452 127.785 21.8966 129.722 21.9668C129.928 21.965 130.133 22.0002 130.323 22.0701C130.513 22.14 130.686 22.2432 130.829 22.3734C131.081 22.6032 131.061 22.7712 130.739 22.9215C130.22 23.1567 129.677 23.3491 129.117 23.4961C127.531 23.9101 125.907 24.2058 124.264 24.3801C121.243 24.769 118.162 25.3789 115.131 25.98C113.419 26.3248 111.707 26.705 110.006 27.0674C109.472 27.1735 109.472 27.1822 109.402 27.6596C108.838 31.5756 108.334 35.5005 107.921 39.4342C107.508 43.3679 107.156 47.1866 106.914 51.0762C106.663 55.5756 106.552 60.0751 106.733 64.5745C106.952 69.6866 107.602 74.7775 108.676 79.8054C108.858 80.6894 109.049 81.5734 109.23 82.3867C108.53 82.4018 107.829 82.3633 107.136 82.2718C106.955 82.2629 106.934 82.1303 106.834 82.0508Z" fill="#908B9E"/>
<path d="M89.543 53.8608C90.0667 53.4895 90.55 53.136 91.0535 52.8089C93.0644 51.3986 95.4118 50.4044 97.9209 49.9006C98.5858 49.7822 99.2584 49.6995 99.9348 49.653C100.045 49.6442 100.156 49.6442 100.267 49.653C100.388 49.6514 100.506 49.6852 100.603 49.7493C100.7 49.8133 100.769 49.9039 100.801 50.0066C100.801 50.263 100.549 50.2718 100.348 50.316C97.0034 51.1494 93.9093 52.6192 91.2852 54.621C90.6508 55.0983 90.7111 54.9746 91.2045 55.505C92.6763 56.8851 93.9325 58.4309 94.9403 60.1017C95.9404 61.7859 96.4409 63.6642 96.3951 65.5631C96.3494 67.462 95.759 69.3202 94.6786 70.9657C93.0356 73.65 90.6626 75.9366 87.7708 77.6221C86.5228 78.3994 85.0909 78.9191 83.582 79.1425C82.0041 79.3709 80.3845 79.1705 78.94 78.568C78.1427 78.2511 77.4624 77.7444 76.9765 77.1053C76.4906 76.4663 76.2185 75.7204 76.191 74.9525C76.0952 73.4508 76.3453 71.9475 76.9261 70.5326C77.9898 67.7856 79.4663 65.1754 81.3164 62.7712C83.2266 60.126 85.4182 57.6458 87.8615 55.3636C88.1233 55.1249 88.0125 54.9922 87.8111 54.8154C86.6229 53.7281 85.4246 52.6497 84.2566 51.5448C82.7327 50.1541 81.438 48.583 80.4101 46.8773C79.4542 45.3392 78.8857 43.6387 78.7432 41.8909C78.6008 40.1432 78.8876 38.389 79.5844 36.747C80.1039 35.4418 81.0114 34.282 82.2126 33.3878C82.8978 32.8577 83.718 32.4799 84.6043 32.2862C85.4906 32.0925 86.4169 32.0887 87.3052 32.275C88.1935 32.4613 89.0179 32.8322 89.7087 33.3566C90.3996 33.8811 90.9368 34.5436 91.2751 35.2884C92.0158 36.8094 92.226 38.4891 91.8792 40.115C91.473 41.892 90.8238 43.6193 89.9459 45.2597C89.7747 45.6221 89.5833 45.9934 89.4021 46.3558C89.2208 46.7182 88.959 46.8509 88.5462 46.7094C88.1333 46.568 88.0326 46.3558 88.1635 45.9315C88.3649 45.3216 88.5765 44.7204 88.7476 44.1105C89.354 42.1177 89.5919 40.0524 89.4525 37.9934C89.4134 37.3074 89.2816 36.6278 89.0597 35.9691C88.9744 35.7105 88.8633 35.4591 88.7275 35.2177C88.6066 34.9232 88.4105 34.6569 88.1543 34.4393C87.8981 34.2216 87.5885 34.0583 87.2493 33.9619C86.9101 33.8655 86.5503 33.8385 86.1973 33.883C85.8444 33.9275 85.5078 34.0424 85.2133 34.2188C84.5614 34.5325 83.9891 34.9597 83.5316 35.4741C82.3346 36.7705 81.5867 38.3414 81.3767 40.0001C81.073 42.643 81.7816 45.2994 83.3906 47.5492C84.4444 49.0646 85.6947 50.4676 87.1164 51.7304C87.9421 52.4022 88.7073 53.1271 89.543 53.8608ZM89.3921 56.2652C89.2699 56.2891 89.1621 56.3522 89.09 56.442C85.8378 59.4476 83.0636 62.8255 80.843 66.484C79.6905 68.3467 78.8141 70.331 78.2351 72.3889C77.898 73.42 77.898 74.5137 78.2351 75.5448C78.4484 76.226 78.9524 76.809 79.6424 77.1728C80.3323 77.5365 81.1554 77.6531 81.9407 77.4983C83.0107 77.3519 84.0373 77.0215 84.9615 76.526C88.1606 74.8949 90.7523 72.4845 92.4229 69.5868C93.3827 67.95 93.8408 66.1222 93.7521 64.2829C93.601 62.4244 92.9074 60.6313 91.7382 59.0763C91.0474 58.0831 90.2626 57.1427 89.3921 56.2652Z" fill="#908B9E"/>
<path d="M61.1479 60.9857C61.4702 59.3591 61.7722 57.7238 62.1549 56.0972C62.6688 53.2881 63.5927 50.5489 64.9038 47.947C65.8377 46.1088 67.2114 44.4686 68.9316 43.1381C70.4476 42.011 72.2396 41.2063 74.1678 40.7867C74.4203 40.7277 74.686 40.7278 74.9386 40.7867C75.1912 40.8456 75.4217 40.9614 75.6076 41.1226C76.0205 41.432 75.9903 41.6884 75.4969 41.9093C75.0035 42.1303 74.3489 42.4397 73.7951 42.7933C71.3215 44.2337 69.2774 46.1738 67.8341 48.4508C66.3762 50.7526 65.2241 53.1936 64.4003 55.7259C63.6753 57.8033 63.0813 59.916 62.4469 62.011C62.4469 62.1259 62.3763 62.232 62.3461 62.3469C62.1649 62.8861 61.8729 62.9923 61.3392 62.7182C61.1173 62.5939 60.9201 62.4387 60.7552 62.2585C60.0697 61.5146 59.5843 60.6443 59.3354 59.7127C59.0322 58.677 58.8235 57.6217 58.7111 56.5569C58.4795 54.7182 58.1472 52.8973 57.9559 51.0498C57.6874 48.7522 57.6706 46.4373 57.9056 44.137C57.9056 43.9425 57.9055 43.6774 58.2076 43.6332C58.5097 43.589 58.6608 43.81 58.681 44.1989C58.7716 45.8785 58.8622 47.5492 58.9327 49.2287C59.0668 51.8036 59.4033 54.3674 59.9397 56.9017C60.0856 57.8443 60.2872 58.7796 60.5438 59.7038C60.6597 60.1779 60.8565 60.6339 61.1278 61.0563L61.1479 60.9857Z" fill="#908B9E"/>
<path d="M46.7786 62.9569C46.2463 62.8316 45.7632 62.5808 45.3816 62.2318C45 61.8827 44.7344 61.4488 44.6136 60.9768C44.28 59.4992 44.0813 58.0004 44.0195 56.495C43.7879 53.1624 43.7377 49.8298 43.5766 46.4884C43.5515 46.3005 43.5515 46.1106 43.5766 45.9226C43.6084 45.7902 43.6833 45.6686 43.7924 45.5729C43.9014 45.4772 44.0399 45.4114 44.1908 45.3834C44.5029 45.3039 44.6641 45.4895 44.8352 45.6751C45.2698 46.1313 45.5242 46.699 45.5602 47.2928C45.671 48.6188 45.6307 49.9447 45.7113 51.2883C45.7113 51.6331 45.7616 51.9779 45.7918 52.3492C46.0838 52.2519 46.1039 52.022 46.1643 51.8452C46.5369 50.8905 46.8792 49.927 47.2417 48.9635C47.767 47.5318 48.4588 46.1515 49.306 44.8442C49.7411 44.1861 50.2877 43.5899 50.9272 43.0762C51.5183 42.6328 52.2585 42.371 53.0347 42.3311C53.811 42.2912 54.5808 42.4753 55.2268 42.8553C55.6742 43.0997 56.0215 43.4625 56.2188 43.8915C56.4161 44.3205 56.453 44.7934 56.3244 45.242C56.1748 45.8208 55.8827 46.364 55.4685 46.8332C55.2067 47.1425 54.965 47.1248 54.814 46.7624C54.7021 46.4551 54.6113 46.1422 54.5421 45.8254C54.4129 45.2852 54.231 44.7558 53.9984 44.2431C53.9165 44.0652 53.8118 43.8962 53.6862 43.7392C53.6383 43.6744 53.5763 43.6186 53.5037 43.575C53.431 43.5314 53.3492 43.5008 53.263 43.4852C53.1768 43.4696 53.0879 43.4692 53.0015 43.4839C52.9152 43.4987 52.8331 43.5284 52.7599 43.5712C52.3669 43.7594 52.0237 44.0185 51.7529 44.3314C51.1492 45.0067 50.6575 45.7537 50.2928 46.5502C49.4162 48.454 48.7421 50.4248 48.2789 52.4375C47.9567 53.6309 47.6546 54.8154 47.3827 55.9735C47.1111 57.4616 46.9698 58.9658 46.9599 60.4729C46.9599 61.1624 46.8994 61.8431 46.8692 62.5326C46.8893 62.6829 46.9296 62.8243 46.7786 62.9569Z" fill="#908B9E"/>
<path d="M107.236 83.1824C107.989 83.1675 108.741 83.2418 109.472 83.4034C109.814 85.0299 110.277 86.6299 110.71 88.2476C110.821 88.6542 110.952 89.052 111.042 89.4675C111.133 89.8829 110.972 89.883 110.609 89.8211C110.247 89.7592 110.136 89.5205 109.995 89.273C109.18 87.7437 108.414 86.1879 107.77 84.5879C107.579 84.1194 107.417 83.6509 107.236 83.1824Z" fill="#908B9E"/>
<path d="M59.2454 81.9094C59.2116 81.938 59.1665 81.9541 59.1195 81.9541C59.0726 81.9541 59.0274 81.938 58.9937 81.9094L59.0642 81.8387C59.0769 81.8293 59.0929 81.8242 59.1094 81.8242C59.126 81.8242 59.1421 81.8293 59.1548 81.8387C59.1919 81.8544 59.2233 81.8789 59.2454 81.9094Z" fill="#908B9E"/>
<path d="M145.41 90.5901C143.107 92.4522 140.453 93.9479 137.566 95.01C135.694 95.7011 133.673 96.0239 131.645 95.9558C129.411 95.8836 127.263 95.1792 125.523 93.9477C123.783 92.7162 122.543 91.0236 121.988 89.1226C121.805 88.4705 121.781 87.792 121.916 87.1311C122.051 86.4702 122.344 85.8416 122.773 85.2862C122.895 85.1692 122.978 85.0256 123.015 84.8706C122.618 84.7289 122.195 84.6483 121.766 84.6321C119.444 84.3669 117.118 84.1135 114.788 83.8719C113.016 83.6862 111.254 83.4829 109.472 83.3768C108.741 83.2152 107.989 83.1409 107.236 83.1558C104.216 82.9259 101.134 82.6696 98.0732 82.484C95.0121 82.2983 91.7898 82.1392 88.6381 82.0154C83.2107 81.7856 77.7832 81.6972 72.3457 81.6972C68.3649 81.6972 64.3875 81.762 60.4134 81.8916C60.1566 81.9271 59.8949 81.9271 59.6381 81.8916V81.821H59.4266C59.3461 81.7149 59.2655 81.7237 59.1749 81.821C59.1622 81.8116 59.1461 81.8065 59.1296 81.8065C59.113 81.8065 59.0969 81.8116 59.0842 81.821C56.7179 81.9359 54.3415 82.042 51.9752 82.1657L43.7182 82.6961C41.4224 82.8729 39.1367 83.0763 36.8408 83.2972C33.9509 83.5713 31.061 83.8983 28.1811 84.2608C24.7172 84.7027 21.2735 85.2066 17.8499 85.8343C13.9199 86.473 10.0544 87.3864 6.29016 88.5657C5.92318 88.6847 5.56347 88.8203 5.21267 88.9723C5.00121 89.0607 4.89054 89.0253 4.80999 88.8485C4.72943 88.6718 4.70928 88.6807 4.669 88.5923C4.48775 88.2652 4.48771 88.2563 4.88042 88.0972C6.67191 87.4119 8.52412 86.8561 10.4186 86.4353C14.9968 85.3722 19.6351 84.5195 24.3145 83.8806C27.9596 83.359 31.6147 82.9348 35.28 82.5459C36.1863 82.4487 37.0926 82.3691 38.019 82.2807L39.5797 82.1834H39.6704C40.6169 82.095 41.5735 82.0155 42.5301 81.9536C44.9971 81.7679 47.4641 81.5735 49.9311 81.4321C52.9519 81.2641 56.0533 81.1404 59.1144 80.9989H59.8293V81.0519C60.937 80.937 62.0447 80.9547 63.1523 80.9281C67.9957 80.8132 72.8392 80.769 77.6926 80.8398C82.1232 80.9105 86.5436 81.0253 90.9742 81.2287C94.0554 81.3701 97.1334 81.5411 100.208 81.7414C102.222 81.8652 104.236 82.042 106.189 82.1834C106.411 82.1834 106.662 82.2984 106.854 82.0951C106.954 82.1569 106.975 82.2895 107.136 82.2983C107.829 82.3899 108.529 82.4284 109.23 82.4133C110.237 82.5989 111.294 82.6254 112.331 82.7403C114.678 83.0055 117.034 83.2707 119.38 83.5005C120.981 83.6597 122.572 83.8452 124.173 83.9955C125.829 84.0839 127.436 84.5184 128.862 85.2626C130.288 86.0068 131.49 87.0393 132.37 88.274C132.44 88.3713 132.521 88.4596 132.601 88.5569C132.541 88.22 132.426 87.8925 132.259 87.5845C132.098 87.2507 131.895 86.9334 131.655 86.6386C131.423 86.3589 131.174 86.0904 130.91 85.8343C130.619 85.5803 130.306 85.3468 129.973 85.1359C128.7 84.3588 127.238 83.8532 125.704 83.6596L124.697 83.5182C124.668 83.4905 124.652 83.4542 124.652 83.4166C124.652 83.3789 124.668 83.3427 124.697 83.3149C125.463 82.6309 126.396 82.108 127.425 81.7856C128.082 81.5711 128.796 81.528 129.48 81.6613C130.165 81.7946 130.79 82.0987 131.282 82.537C131.764 82.9267 132.169 83.3836 132.48 83.8894C133.371 85.3157 134.585 86.5672 136.046 87.5674C137.508 88.5675 139.186 89.2953 140.979 89.7061C142.374 90.0796 143.813 90.3138 145.269 90.4044C145.349 90.4044 145.44 90.4044 145.49 90.4751C145.54 90.5459 145.45 90.5459 145.41 90.5901Z" fill="url(#paint0_linear_1441_3916)"/>
<path d="M59.155 81.8387H59.0645C59.0771 81.8293 59.0931 81.8242 59.1097 81.8242C59.1263 81.8242 59.1423 81.8293 59.155 81.8387Z" fill="#908B9E"/>
</g>
<defs>
<linearGradient id="paint0_linear_1441_3916" x1="4.52801" y1="88.3889" x2="145.49" y2="88.3889" gradientUnits="userSpaceOnUse">
<stop stop-color="#908B9E"/>
<stop offset="1" stop-color="#908B9E"/>
</linearGradient>
<clipPath id="clip0_1441_3916">
<rect width="145" height="96" fill="white" transform="translate(0.5)"/>
</clipPath>
</defs>
</svg>
